# xmcd
#
# Track frame offsets: 
#        225
#        23168
#        39383
#        59304
#        81073
#        101763
#        114064
#        132175
#        150112
#        172172
#        192305
#        210751
#
# Disc length: 3066 seconds
#
# Revision: 0
# Processed by: cddbd v1.5.2PL0 Copyright (c) Steve Scherf et al.
# Submitted via: ExactAudioCopy v0.95a4
#
DISCID=8b0bf70c
DTITLE=Calo Rapallo - ''Einfach So...''
DYEAR=2011
DGENRE=Blues
TTITLE0=Entscheiden
TTITLE1=Einfach so
TTITLE2=Geld
TTITLE3=Herzblut
TTITLE4=Out of control
TTITLE5=S isch wie's isch
TTITLE6=I bleib cool
TTITLE7=Tagesschau
TTITLE8=Hab koi Zeit
TTITLE9=Will mit der Sonne ziah
TTITLE10=Utopia
TTITLE11=Das Wrack in der Bucht
EXTD=Year: 2011\n\n\n\n\n\n                                           
EXTD=            www.calorapallo.de
EXTT0=
EXTT1=
EXTT2=
EXTT3=
EXTT4=
EXTT5=
EXTT6=
EXTT7=
EXTT8=
EXTT9=
EXTT10=
EXTT11=
PLAYORDER=
